<svg width="880" height="540" viewBox="0 0 880 540" fill="none" xmlns="http://www.w3.org/2000/svg" font-family="'Instrument Sans','Inter','Segoe UI',Arial,sans-serif" role="img" aria-label="Prévia do painel Milia Invest">
    <defs>
        <linearGradient id="mhd-card" x1="0" y1="0" x2="880" y2="540" gradientUnits="userSpaceOnUse">
            <stop stop-color="#121212"/>
            <stop offset="1" stop-color="#0A0A0A"/>
        </linearGradient>
        <linearGradient id="mhd-line" x1="60" y1="420" x2="560" y2="230" gradientUnits="userSpaceOnUse">
            <stop stop-color="#E6C65C"/>
            <stop offset="1" stop-color="#D4AF37"/>
        </linearGradient>
        <linearGradient id="mhd-area" x1="310" y1="240" x2="310" y2="470" gradientUnits="userSpaceOnUse">
            <stop stop-color="#D4AF37" stop-opacity="0.25"/>
            <stop offset="1" stop-color="#D4AF37" stop-opacity="0"/>
        </linearGradient>
    </defs>

    <!-- janela -->
    <rect x="0.5" y="0.5" width="879" height="539" rx="20" fill="url(#mhd-card)" stroke="#2B2B2B"/>
    <circle cx="30" cy="28" r="5.5" fill="#D9645C"/>
    <circle cx="50" cy="28" r="5.5" fill="#D4AF37"/>
    <circle cx="70" cy="28" r="5.5" fill="#57A97D"/>
    <text x="96" y="33" font-size="13" fill="#6E6E6E">app.miliainvest — Dashboard</text>
    <rect x="700" y="16" width="150" height="26" rx="13" fill="#1C1C1C"/>
    <circle cx="717" cy="29" r="6" fill="#D4AF37"/>
    <text x="730" y="33" font-size="12" fill="#A3A3A3">3 alertas hoje</text>
    <line x1="0" y1="52" x2="880" y2="52" stroke="#222222"/>

    <!-- cards de estatística -->
    <g>
        <rect x="28" y="74" width="262" height="96" rx="14" fill="#161616" stroke="#282828"/>
        <text x="48" y="104" font-size="13" fill="#8C8C8C">Patrimônio total</text>
        <text x="48" y="136" font-size="24" font-weight="700" fill="#FAFAF9">R$ 1.248.390</text>
        <rect x="48" y="146" width="92" height="17" rx="8.5" fill="#12251C"/>
        <text x="58" y="158.5" font-size="11" fill="#57C08B">▲ 2,4% no mês</text>
    </g>
    <g>
        <rect x="308" y="74" width="262" height="96" rx="14" fill="#161616" stroke="#282828"/>
        <text x="328" y="104" font-size="13" fill="#8C8C8C">Renda passiva (mês)</text>
        <text x="328" y="136" font-size="24" font-weight="700" fill="#FAFAF9">R$ 4.312</text>
        <rect x="328" y="146" width="118" height="17" rx="8.5" fill="#2A230F"/>
        <text x="338" y="158.5" font-size="11" fill="#E6C65C">12 proventos recebidos</text>
    </g>
    <g>
        <rect x="588" y="74" width="264" height="96" rx="14" fill="#161616" stroke="#282828"/>
        <text x="608" y="104" font-size="13" fill="#8C8C8C">Resultado do mês</text>
        <text x="608" y="136" font-size="24" font-weight="700" fill="#57C08B">+ R$ 8.940</text>
        <rect x="608" y="146" width="132" height="17" rx="8.5" fill="#1C1C1C"/>
        <text x="618" y="158.5" font-size="11" fill="#A3A3A3">receitas − despesas</text>
    </g>

    <!-- gráfico principal -->
    <g>
        <rect x="28" y="192" width="542" height="320" rx="14" fill="#161616" stroke="#282828"/>
        <text x="48" y="222" font-size="14" font-weight="600" fill="#E7E5E4">Evolução da carteira</text>
        <circle cx="366" cy="217" r="4" fill="#D4AF37"/>
        <text x="376" y="221" font-size="11" fill="#A3A3A3">Carteira</text>
        <circle cx="444" cy="217" r="4" fill="#4D4D4D"/>
        <text x="454" y="221" font-size="11" fill="#A3A3A3">100% CDI</text>
        <circle cx="516" cy="217" r="4" fill="#9C9488"/>
        <text x="526" y="221" font-size="11" fill="#A3A3A3">IBOV</text>

        <g stroke="#222222">
            <line x1="48" y1="270" x2="550" y2="270"/>
            <line x1="48" y1="320" x2="550" y2="320"/>
            <line x1="48" y1="370" x2="550" y2="370"/>
            <line x1="48" y1="420" x2="550" y2="420"/>
            <line x1="48" y1="470" x2="550" y2="470"/>
        </g>
        <text x="48" y="492" font-size="10" fill="#616161">jan</text>
        <text x="150" y="492" font-size="10" fill="#616161">mar</text>
        <text x="252" y="492" font-size="10" fill="#616161">mai</text>
        <text x="354" y="492" font-size="10" fill="#616161">jul</text>
        <text x="456" y="492" font-size="10" fill="#616161">set</text>
        <text x="530" y="492" font-size="10" fill="#616161">nov</text>

        <path d="M48 452 C110 448, 150 430, 200 424 C260 417, 300 398, 360 380 C420 362, 470 350, 550 336" stroke="#4D4D4D" stroke-width="2.5" stroke-dasharray="6 6" fill="none"/>
        <path d="M48 458 C100 452, 140 440, 190 442 C250 445, 290 415, 350 405 C410 395, 460 372, 550 358" stroke="#9C9488" stroke-width="2" fill="none" opacity="0.65"/>
        <path d="M48 455 L48 470 L550 470 L550 250 C490 268, 430 290, 380 310 C330 330, 290 355, 240 380 C190 405, 120 440, 48 455 Z" fill="url(#mhd-area)"/>
        <path d="M48 455 C120 440, 190 405, 240 380 C290 355, 330 330, 380 310 C430 290, 490 268, 550 250" stroke="url(#mhd-line)" stroke-width="4" stroke-linecap="round" fill="none"/>
        <circle cx="550" cy="250" r="6" fill="#D4AF37"/>
        <circle cx="550" cy="250" r="11" fill="#D4AF37" opacity="0.25"/>
        <rect x="452" y="222" width="88" height="20" rx="10" fill="#2A230F"/>
        <text x="464" y="236" font-size="11" font-weight="600" fill="#E6C65C">+18,2% a.a.</text>
    </g>

    <!-- alocação -->
    <g>
        <rect x="588" y="192" width="264" height="320" rx="14" fill="#161616" stroke="#282828"/>
        <text x="608" y="222" font-size="14" font-weight="600" fill="#E7E5E4">Alocação por classe</text>

        <text x="608" y="256" font-size="12" fill="#A3A3A3">Ações</text>
        <text x="806" y="256" font-size="12" fill="#D6D3D1" text-anchor="end">38%</text>
        <rect x="608" y="264" width="224" height="8" rx="4" fill="#242424"/>
        <rect x="608" y="264" width="85" height="8" rx="4" fill="#D4AF37"/>

        <text x="608" y="300" font-size="12" fill="#A3A3A3">Fundos imobiliários</text>
        <text x="806" y="300" font-size="12" fill="#D6D3D1" text-anchor="end">24%</text>
        <rect x="608" y="308" width="224" height="8" rx="4" fill="#242424"/>
        <rect x="608" y="308" width="54" height="8" rx="4" fill="#E6C65C"/>

        <text x="608" y="344" font-size="12" fill="#A3A3A3">Renda fixa</text>
        <text x="806" y="344" font-size="12" fill="#D6D3D1" text-anchor="end">18%</text>
        <rect x="608" y="352" width="224" height="8" rx="4" fill="#242424"/>
        <rect x="608" y="352" width="40" height="8" rx="4" fill="#F0DE9E"/>

        <text x="608" y="388" font-size="12" fill="#A3A3A3">Imóveis</text>
        <text x="806" y="388" font-size="12" fill="#D6D3D1" text-anchor="end">14%</text>
        <rect x="608" y="396" width="224" height="8" rx="4" fill="#242424"/>
        <rect x="608" y="396" width="31" height="8" rx="4" fill="#9C9488"/>

        <text x="608" y="432" font-size="12" fill="#A3A3A3">Veículos e outros</text>
        <text x="806" y="432" font-size="12" fill="#D6D3D1" text-anchor="end">6%</text>
        <rect x="608" y="440" width="224" height="8" rx="4" fill="#242424"/>
        <rect x="608" y="440" width="13" height="8" rx="4" fill="#8C6D3F"/>

        <rect x="608" y="466" width="224" height="30" rx="10" fill="#1C1C1C"/>
        <text x="620" y="485" font-size="11" fill="#A3A3A3">Ouro, opções e colecionáveis inclusos</text>
    </g>
</svg>
